# xmcd CD database file
# Copyright (C) 1997 Ti Kan
# 
# Track frame offsets:
#     150
#     16480
#     37495
#     54322
#     72400
#     91522
#     114045
#     138282
#     159367
#     176560
#     200855
#     217340
#     233552
# 
# Disc length: 3663 seconds
# 
# Revision: 1
# Processed by: cddbd v1.4b41PL1 Copyright (c) Steve Scherf et al.
# Submitted via: DiscPlay 4.0.4
# 
DISCID=b30e4d0d
DTITLE=Freedom Williams - Freedom
DYEAR=1900
DGENRE=
TTITLE0=Voice of Freedom
TTITLE1=Call Me Up (Wit Your Love)
TTITLE2=C'Mon and Dance
TTITLE3=Com-Bi-Na-Tion
TTITLE4=Down
TTITLE5=Heaven (I Miss)
TTITLE6=When I Rise (A Day of Moments)
TTITLE7=Groove Your Mind
TTITLE8=(A Letter to My Lover) Mysterious Love
TTITLE9=Re-Spect
TTITLE10=Stand
TTITLE11=Coc-D
TTITLE12=Voice of Freedom (House of Freedom Mix)
EXTD=
EXTT0=
EXTT1=
EXTT2=
EXTT3=
EXTT4=
EXTT5=
EXTT6=
EXTT7=
EXTT8=
EXTT9=
EXTT10=
EXTT11=
EXTT12=
PLAYORDER=
